<svg width="60" height="60" viewBox="0 0 60 60" fill="none" xmlns="http://www.w3.org/2000/svg">
<g clip-path="url(#clip0)">
<path d="M59.9742 38.4457C59.802 37.0488 59.0941 35.8371 57.8648 34.8398C57.8496 34.8212 57.8327 34.804 57.8145 34.7883L57.7523 34.7438L57.7324 34.7297L57.0797 34.2609L57.0574 34.2445L56.9742 34.1859C56.9437 34.1681 56.911 34.1544 56.877 34.1449C54.8121 32.9156 51.3938 32.0543 46.1637 33.9C44.9156 31.8 44.7738 30.1172 45.6094 27.5391C45.7582 27.0902 45.6199 26.7938 45.1746 26.6016C44.2793 26.2207 43.0535 26.4152 42.184 26.6449C41.7785 26.7504 41.5348 26.9801 41.4574 27.3281C40.9066 29.9063 39.3059 32.2617 37.7578 34.5352L37.6664 34.6688C36.7125 32.6461 36.9106 31.0793 37.575 29.1164C37.7074 28.725 37.6031 28.4649 37.2363 28.2703C36.2121 27.7418 34.6758 28.1051 34.0641 28.2856C33.2883 28.5117 32.4563 30.6082 31.527 33.1184C31.2926 33.75 31.091 34.2902 30.9703 34.5422C30.6832 35.1281 30.409 35.7961 30.1184 36.5051C29.4621 38.1094 28.7227 39.9152 27.6656 41.0496C27.2813 40.2 27.8859 38.8606 28.4731 37.5609C29.168 36.0246 29.8242 34.5727 29.0684 33.6457C28.9488 33.4992 28.8006 33.3786 28.6327 33.2916C28.4648 33.2045 28.2808 33.1527 28.0922 33.1395C27.8461 33.1207 27.599 33.1609 27.3715 33.2566C27.45 32.5945 27.4535 32.0719 27.2602 31.4402C26.9836 30.5391 26.2652 30.034 25.2762 30.0609C23.0238 30.1266 21.1184 31.8047 19.9148 33.2016C19.1133 34.1391 17.3367 34.8539 15.777 35.4809C15.1606 35.7422 14.5746 35.9766 14.0859 36.2109C13.3066 35.5524 12.3164 34.8879 11.2734 34.1859C8.34375 32.2195 5.02383 29.9895 4.90899 26.966C4.74493 22.5 9.83086 19.3324 14.2699 17.0719C17.6344 15.3609 20.5594 14.2266 23.2125 13.6066C26.9391 12.7359 30.0867 12.9117 32.5664 14.127C33.9234 14.7914 34.5586 16.2363 34.1555 17.7223C33.1008 21.5836 28.7309 24.2297 24.9938 25.4203C22.7426 26.1375 20.8266 26.4375 19.1344 26.3391C17.0133 26.216 15.2813 25.152 14.5406 24.6984C14.422 24.6174 14.2965 24.5468 14.1656 24.4875L14.1316 24.4793C14.0646 24.4626 13.9942 24.4647 13.9283 24.4854C13.8623 24.5061 13.8034 24.5445 13.7578 24.5965C13.6055 24.7781 13.6594 25.0652 13.7145 25.2106C14.4352 27.0938 15.9234 28.2832 18.1371 28.7461C18.8616 28.8912 19.5991 28.9615 20.3379 28.9559C25.5188 28.9559 32.1293 25.9688 34.5574 23.509C36.2133 21.8332 37.4191 20.1106 37.9184 17.1398C38.4398 14.0285 36.3305 11.8664 34.1813 10.8703C28.9582 8.45977 23.0262 9.41251 18.9691 10.6359C14.2231 12.0668 9.3129 14.6684 5.49961 17.7762C0.798052 21.6047 -0.901167 25.159 0.446489 28.3524C1.83047 31.6254 5.20547 33.6727 8.46914 35.6531C9.52383 36.2918 10.527 36.9 11.4305 37.5281C11.1586 37.6606 10.8809 37.7953 10.5984 37.9301C7.8586 39.2578 4.75079 40.752 3.02696 43.2211C1.7754 45.0199 1.54102 46.8106 2.33086 48.5438C2.75274 49.466 3.50274 50.0918 4.54454 50.4035C5.08647 50.5571 5.64772 50.6317 6.21094 50.625C8.23946 50.625 10.4719 49.8047 11.6871 49.0465C13.834 47.6988 15.225 45.8895 15.8227 43.6688C16.3547 41.693 16.227 39.7301 15.4535 37.9781L18.0844 36.6516C16.8152 40.8703 17.7879 43.3898 18.8566 44.7797C19.2504 45.2918 19.9606 45.6 20.7539 45.6141C21.5473 45.6281 22.2773 45.3293 22.6898 44.8207C23.4703 43.8539 24.0469 42.7231 24.5777 41.5922C24.5496 42.3305 24.5848 43.0781 24.8367 43.7121C25.0629 44.2828 25.4356 44.6613 25.916 44.8066C26.427 44.9625 27.0258 44.8313 27.6023 44.4375C30.2004 42.6598 31.977 38.393 33.4043 34.9629C33.607 34.4754 33.8016 34.0066 33.9902 33.5684C34.3434 34.8321 34.8346 36.0532 35.4551 37.2094C35.5934 37.4602 35.5816 37.5703 35.3941 37.7766C35.1117 38.0859 34.718 38.4598 34.3008 38.8559C33.0375 40.0547 31.4649 41.5512 31.2539 42.8672C31.1719 43.3945 31.5352 43.875 32.0988 43.984C33.7945 44.3215 35.8371 43.8281 37.5645 42.6656C39.1348 41.6109 39.7254 40.1402 39.3223 38.3074C38.932 36.5426 39.8227 34.3512 41.9695 31.7895C42.3211 33.2578 42.7898 34.4449 43.4367 35.4844L43.4191 35.4984C41.8559 36.8637 39.7137 38.7328 40.0465 41.0004C40.0744 41.216 40.147 41.4235 40.2596 41.6095C40.3722 41.7956 40.5223 41.9561 40.7004 42.0809C40.8907 42.2094 41.1056 42.2971 41.3314 42.3387C41.5573 42.3802 41.7893 42.3746 42.0129 42.3223C44.0602 41.8922 45.6012 41.0262 46.7215 39.6773C47.8418 38.3285 47.4328 36.8332 47.0555 35.6731C49.9852 34.8785 52.5938 34.8984 55.0359 35.7316C56.407 36.2004 57.3902 36.9703 57.9574 38.0332C58.6711 39.3703 58.2856 40.6043 56.8688 41.5078C56.434 41.7856 56.2242 41.9555 56.2113 42.1699C56.2085 42.2197 56.2176 42.2694 56.238 42.3149C56.2584 42.3604 56.2894 42.4003 56.3285 42.4313C56.4926 42.566 56.9988 42.8004 58.1438 42.0797C59.1984 41.4176 59.8172 40.5164 59.9754 39.3844C60.0072 39.0723 60.0068 38.7577 59.9742 38.4457ZM13.1309 41.3824L13.1191 41.5324C12.9363 43.2481 12.0645 44.7434 10.5234 45.9856C9.55547 46.766 8.5043 47.2453 7.56446 47.3367C6.90821 47.4 6.43125 47.3109 6.14766 47.0707C5.93555 46.8914 5.82188 46.6231 5.7961 46.2504C5.60391 43.2645 10.2867 40.2973 12.9223 39.3211C13.1104 39.991 13.1809 40.6884 13.1309 41.3824ZM25.125 32.9613C24.6914 35.4328 23.427 40.0981 21.4395 41.9086C21.3445 41.9953 21.2648 42.0258 21.2285 42.0176C21.1922 42.0094 21.1641 41.966 21.1348 41.9004C20.4715 40.3629 20.7164 37.766 21.7207 35.7258C22.493 34.1531 23.5957 33.1113 24.8285 32.7961C24.8797 32.782 24.9325 32.7745 24.9856 32.7738C25.0271 32.7709 25.0683 32.7821 25.1027 32.8055C25.1172 32.8284 25.1267 32.8542 25.1306 32.881C25.1344 32.9079 25.1325 32.9353 25.125 32.9613ZM34.909 41.9707C34.5352 42.3609 34.0231 42.3082 34.1438 42.1652L36.0469 40.1449C35.8934 40.8398 35.4398 41.4152 34.909 41.9707ZM42.8039 40.2234C42.6229 40.3126 42.4271 40.3678 42.2262 40.3863C42.1723 39.3234 43.2023 38.127 44.2184 37.3289C44.4914 38.4375 43.9324 39.6094 42.8039 40.2234Z" fill="#CFCFCF"/>
</g>
<defs>
<clipPath id="clip0">
<rect width="60" height="60" fill="white"/>
</clipPath>
</defs>
</svg>
