<svg width="138" height="29" viewBox="0 0 138 29" fill="none" xmlns="http://www.w3.org/2000/svg">
<path d="M7.82 28.648C6.308 28.648 4.976 28.384 3.824 27.856C2.672 27.328 1.784 26.596 1.16 25.66C0.536 24.7 0.224 23.596 0.224 22.348C0.224 21.292 0.44 20.332 0.872 19.468C1.328 18.604 1.928 17.92 2.672 17.416C3.44 16.912 4.28 16.66 5.192 16.66C6.032 16.66 6.74 16.876 7.316 17.308C7.892 17.716 8.252 18.292 8.396 19.036C7.148 19.036 6.152 19.372 5.408 20.044C4.664 20.692 4.292 21.58 4.292 22.708C4.292 23.74 4.604 24.568 5.228 25.192C5.852 25.816 6.68 26.128 7.712 26.128C8.984 26.128 10.028 25.708 10.844 24.868C11.684 24.004 12.104 22.924 12.104 21.628C12.104 20.5 11.792 19.432 11.168 18.424C10.544 17.416 9.608 16.192 8.36 14.752C7.064 13.264 6.08 11.992 5.408 10.936C4.76 9.856 4.436 8.68 4.436 7.408C4.436 6.16 4.784 5.044 5.48 4.06C6.176 3.052 7.136 2.26 8.36 1.684C9.584 1.108 10.964 0.819998 12.5 0.819998C14.444 0.819998 15.992 1.276 17.144 2.188C18.32 3.1 18.908 4.324 18.908 5.86C18.908 6.868 18.656 7.684 18.152 8.308C17.648 8.932 16.988 9.244 16.172 9.244C15.26 9.244 14.528 8.872 13.976 8.128C14.432 7.792 14.792 7.348 15.056 6.796C15.32 6.244 15.452 5.668 15.452 5.068C15.452 4.3 15.224 3.688 14.768 3.232C14.312 2.776 13.688 2.548 12.896 2.548C11.936 2.548 11.144 2.896 10.52 3.592C9.92 4.264 9.62 5.128 9.62 6.184C9.62 7.144 9.896 8.044 10.448 8.884C11 9.7 11.864 10.756 13.04 12.052C14 13.084 14.768 13.972 15.344 14.716C15.944 15.46 16.448 16.324 16.856 17.308C17.288 18.268 17.504 19.312 17.504 20.44C17.504 21.976 17.072 23.368 16.208 24.616C15.368 25.864 14.204 26.848 12.716 27.568C11.252 28.288 9.62 28.648 7.82 28.648ZM24.7873 28.144C23.0113 28.144 21.6073 27.688 20.5753 26.776C19.5433 25.864 19.0272 24.424 19.0272 22.456C19.0272 20.824 19.3632 19.012 20.0353 17.02C20.7073 15.028 21.7873 13.312 23.2753 11.872C24.7633 10.408 26.6353 9.676 28.8913 9.676C31.9633 9.676 33.4993 11.596 33.4993 15.436V15.472C33.5713 15.496 33.7033 15.508 33.8953 15.508C34.6873 15.508 35.5993 15.304 36.6313 14.896C37.6633 14.464 38.5993 13.948 39.4393 13.348L39.7633 14.32C39.0673 15.064 38.1553 15.7 37.0273 16.228C35.9233 16.732 34.7113 17.092 33.3913 17.308C33.1993 19.492 32.7073 21.4 31.9153 23.032C31.1233 24.664 30.1033 25.924 28.8553 26.812C27.6073 27.7 26.2513 28.144 24.7873 28.144ZM26.2273 24.904C26.8033 24.904 27.3793 24.58 27.9553 23.932C28.5313 23.26 29.0353 22.36 29.4673 21.232C29.8993 20.08 30.2113 18.808 30.4033 17.416C29.7553 17.272 29.4313 16.768 29.4313 15.904C29.4313 14.92 29.8033 14.272 30.5473 13.96C30.4993 13.168 30.3793 12.628 30.1873 12.34C29.9953 12.028 29.6593 11.872 29.1793 11.872C28.3873 11.872 27.6193 12.448 26.8753 13.6C26.1313 14.752 25.5313 16.132 25.0753 17.74C24.6193 19.348 24.3913 20.764 24.3913 21.988C24.3913 23.14 24.5233 23.92 24.7873 24.328C25.0513 24.712 25.5313 24.904 26.2273 24.904ZM40.4996 28.216C38.7236 28.216 37.3436 27.76 36.3596 26.848C35.3756 25.912 34.8836 24.46 34.8836 22.492C34.8836 20.836 35.2076 19.012 35.8556 17.02C36.5276 15.028 37.5836 13.312 39.0236 11.872C40.4876 10.408 42.3356 9.676 44.5676 9.676C46.0076 9.676 47.0276 9.988 47.6276 10.612C48.2516 11.236 48.5636 12.028 48.5636 12.988C48.5636 13.828 48.3836 14.476 48.0236 14.932C47.6636 15.388 47.2076 15.616 46.6556 15.616C46.2476 15.616 45.8276 15.472 45.3956 15.184C45.6836 14.392 45.8276 13.684 45.8276 13.06C45.8276 12.604 45.7436 12.244 45.5756 11.98C45.4076 11.716 45.1556 11.584 44.8196 11.584C44.0996 11.584 43.3796 12.172 42.6596 13.348C41.9396 14.524 41.3516 15.952 40.8956 17.632C40.4396 19.312 40.2116 20.824 40.2116 22.168C40.2116 23.344 40.4156 24.148 40.8236 24.58C41.2316 24.988 41.8916 25.192 42.8036 25.192C44.0996 25.192 45.2036 24.892 46.1156 24.292C47.0516 23.692 48.0716 22.78 49.1756 21.556H50.3996C47.7356 25.996 44.4356 28.216 40.4996 28.216ZM55.18 8.056C54.388 8.056 53.716 7.78 53.164 7.228C52.612 6.676 52.336 6.004 52.336 5.212C52.336 4.42 52.612 3.748 53.164 3.196C53.716 2.62 54.388 2.332 55.18 2.332C55.972 2.332 56.644 2.62 57.196 3.196C57.772 3.748 58.06 4.42 58.06 5.212C58.06 6.004 57.772 6.676 57.196 7.228C56.644 7.78 55.972 8.056 55.18 8.056ZM52.732 28.216C51.58 28.216 50.644 27.856 49.924 27.136C49.228 26.416 48.88 25.336 48.88 23.896C48.88 23.296 48.976 22.516 49.168 21.556L51.616 10H56.8L54.208 22.24C54.112 22.6 54.064 22.984 54.064 23.392C54.064 23.872 54.172 24.22 54.388 24.436C54.628 24.628 55.012 24.724 55.54 24.724C56.236 24.724 56.884 24.436 57.484 23.86C58.084 23.26 58.516 22.492 58.78 21.556H60.292C59.404 24.148 58.264 25.912 56.872 26.848C55.48 27.76 54.1 28.216 52.732 28.216ZM63.0856 28.216C61.7176 28.216 60.5776 27.748 59.6656 26.812C58.7536 25.876 58.2976 24.412 58.2976 22.42C58.2976 20.644 58.6456 18.784 59.3416 16.84C60.0616 14.872 61.1176 13.216 62.5096 11.872C63.9256 10.504 65.6056 9.82 67.5496 9.82C68.5336 9.82 69.2656 9.988 69.7456 10.324C70.2256 10.66 70.4656 11.104 70.4656 11.656V11.908L70.8616 10H76.0456L73.4536 22.24C73.3576 22.6 73.3096 22.984 73.3096 23.392C73.3096 24.424 73.8016 24.94 74.7856 24.94C75.4576 24.94 76.0336 24.628 76.5136 24.004C77.0176 23.38 77.4136 22.564 77.7016 21.556H79.2136C78.3256 24.148 77.2216 25.912 75.9016 26.848C74.6056 27.76 73.2976 28.216 71.9776 28.216C70.9696 28.216 70.1536 27.94 69.5296 27.388C68.9296 26.812 68.5696 25.984 68.4496 24.904C67.7536 25.888 66.9736 26.692 66.1096 27.316C65.2696 27.916 64.2616 28.216 63.0856 28.216ZM65.4256 24.724C66.0256 24.724 66.6136 24.448 67.1896 23.896C67.7896 23.32 68.1976 22.54 68.4136 21.556L70.1416 13.42C70.1416 13.108 70.0216 12.808 69.7816 12.52C69.5416 12.208 69.1696 12.052 68.6656 12.052C67.7056 12.052 66.8416 12.616 66.0736 13.744C65.3056 14.848 64.7056 16.192 64.2736 17.776C63.8416 19.336 63.6256 20.716 63.6256 21.916C63.6256 23.116 63.7936 23.884 64.1296 24.22C64.4896 24.556 64.9216 24.724 65.4256 24.724ZM81.2068 28.216C80.0548 28.216 79.1188 27.856 78.3988 27.136C77.7028 26.392 77.3548 25.288 77.3548 23.824C77.3548 23.224 77.4508 22.444 77.6428 21.484L81.4948 3.448L86.8228 2.728L82.6828 22.168C82.5868 22.528 82.5388 22.876 82.5388 23.212C82.5388 24.172 83.0308 24.652 84.0148 24.652C84.4468 24.652 84.8308 24.58 85.1668 24.436C85.0708 25.636 84.6388 26.572 83.8708 27.244C83.1268 27.892 82.2388 28.216 81.2068 28.216ZM98.416 28.468C96.976 28.468 95.512 27.832 94.024 26.56L93.736 28H88.552L93.448 5.104L98.776 4.384L94.456 24.58C95.128 25.06 95.812 25.3 96.508 25.3C97.876 25.3 99.076 24.508 100.108 22.924C101.164 21.34 101.98 19.324 102.556 16.876C103.132 14.428 103.42 11.956 103.42 9.46C103.42 7.108 102.952 5.392 102.016 4.312C101.104 3.208 99.82 2.656 98.164 2.656C96.364 2.656 94.744 3.016 93.304 3.736C91.888 4.432 90.772 5.44 89.956 6.76C89.14 8.08 88.732 9.628 88.732 11.404C88.732 12.292 88.816 12.916 88.984 13.276C89.152 13.612 89.236 13.804 89.236 13.852C87.988 13.852 87.028 13.588 86.356 13.06C85.708 12.532 85.384 11.68 85.384 10.504C85.384 8.872 85.996 7.324 87.22 5.86C88.444 4.396 90.076 3.22 92.116 2.332C94.18 1.444 96.4 0.999998 98.776 0.999998C102.064 0.999998 104.488 1.972 106.048 3.916C107.608 5.86 108.388 8.344 108.388 11.368C108.388 14.104 107.92 16.804 106.984 19.468C106.072 22.108 104.848 24.268 103.312 25.948C101.776 27.628 100.144 28.468 98.416 28.468ZM114.187 28.216C112.411 28.216 111.031 27.76 110.047 26.848C109.063 25.912 108.571 24.46 108.571 22.492C108.571 20.836 108.895 19.012 109.543 17.02C110.191 15.028 111.247 13.312 112.711 11.872C114.175 10.408 116.035 9.676 118.291 9.676C120.931 9.676 122.251 10.828 122.251 13.132C122.251 14.476 121.867 15.712 121.099 16.84C120.331 17.968 119.311 18.88 118.039 19.576C116.767 20.248 115.411 20.632 113.971 20.728C113.923 21.448 113.899 21.928 113.899 22.168C113.899 23.344 114.103 24.148 114.511 24.58C114.919 24.988 115.579 25.192 116.491 25.192C117.787 25.192 118.891 24.892 119.803 24.292C120.739 23.692 121.759 22.78 122.863 21.556H124.087C121.423 25.996 118.123 28.216 114.187 28.216ZM114.259 19C115.147 18.952 115.987 18.64 116.779 18.064C117.595 17.488 118.243 16.756 118.723 15.868C119.227 14.98 119.479 14.044 119.479 13.06C119.479 12.076 119.179 11.584 118.579 11.584C117.715 11.584 116.863 12.34 116.023 13.852C115.207 15.364 114.619 17.08 114.259 19ZM126.959 28.216C125.567 28.216 124.475 27.868 123.683 27.172C122.915 26.452 122.531 25.384 122.531 23.968C122.531 23.392 122.591 22.816 122.711 22.24L125.303 10H130.487L127.895 22.24C127.775 22.84 127.715 23.272 127.715 23.536C127.715 24.328 128.123 24.724 128.939 24.724C130.043 24.724 131.063 24.028 131.999 22.636C132.959 21.244 133.727 19.588 134.303 17.668C134.879 15.748 135.167 14.092 135.167 12.7C135.119 12.82 134.963 12.916 134.699 12.988C134.435 13.036 134.207 13.06 134.015 13.06C133.607 13.06 133.283 12.868 133.043 12.484C132.827 12.1 132.719 11.68 132.719 11.224C132.719 10.648 132.899 10.18 133.259 9.82C133.643 9.46 134.207 9.28 134.951 9.28C135.743 9.28 136.319 9.58 136.679 10.18C137.039 10.756 137.219 11.5 137.219 12.412C137.219 14.572 136.847 16.888 136.103 19.36C135.359 21.808 134.219 23.896 132.683 25.624C131.147 27.352 129.239 28.216 126.959 28.216Z" fill="#CFCFCF"/>
</svg>
