<svg width="32" height="32" viewBox="0 0 32 32" fill="none" xmlns="http://www.w3.org/2000/svg">
<path d="M2 2H6V6H2V2Z" fill="#CFCFCF"/>
<path d="M10 2H14V6H10V2Z" fill="#CFCFCF"/>
<path d="M18 2H22V6H18V2Z" fill="#CFCFCF"/>
<path d="M26 2H30V6H26V2Z" fill="#CFCFCF"/>
<path d="M2 10H6V14H2V10Z" fill="#CFCFCF"/>
<path d="M10 10H14V14H10V10Z" fill="#CFCFCF"/>
<path d="M18 10H22V14H18V10Z" fill="#CFCFCF"/>
<path d="M26 10H30V14H26V10Z" fill="#CFCFCF"/>
<path d="M2 18H6V22H2V18Z" fill="#CFCFCF"/>
<path d="M10 18H14V22H10V18Z" fill="#CFCFCF"/>
<path d="M18 18H22V22H18V18Z" fill="#CFCFCF"/>
<path d="M26 18H30V22H26V18Z" fill="#CFCFCF"/>
<path d="M2 26H6V30H2V26Z" fill="#CFCFCF"/>
<path d="M10 26H14V30H10V26Z" fill="#CFCFCF"/>
<path d="M18 26H22V30H18V26Z" fill="#CFCFCF"/>
<path d="M26 26H30V30H26V26Z" fill="#CFCFCF"/>
</svg>
