<svg width="32" height="32" viewBox="0 0 32 32" fill="none" xmlns="http://www.w3.org/2000/svg">
<path d="M29.0001 27.586L21.4481 20.034C23.2629 17.8553 24.1679 15.0609 23.9748 12.2319C23.7817 9.403 22.5054 6.75741 20.4114 4.84554C18.3173 2.93367 15.5669 1.9027 12.7321 1.96711C9.89729 2.03152 7.19647 3.18635 5.19146 5.19136C3.18644 7.19638 2.03161 9.8972 1.9672 12.732C1.90279 15.5668 2.93376 18.3173 4.84563 20.4113C6.75751 22.5053 9.40309 23.7816 12.232 23.9747C15.061 24.1678 17.8554 23.2628 20.0341 21.448L27.5861 29L29.0001 27.586ZM4.00012 13C4.00012 11.22 4.52796 9.47993 5.51689 7.99989C6.50582 6.51985 7.91143 5.3663 9.55596 4.68511C11.2005 4.00392 13.0101 3.82569 14.7559 4.17296C16.5018 4.52022 18.1054 5.37739 19.3641 6.63606C20.6227 7.89474 21.4799 9.49838 21.8272 11.2442C22.1745 12.99 21.9962 14.7996 21.315 16.4442C20.6338 18.0887 19.4803 19.4943 18.0002 20.4833C16.5202 21.4722 14.7801 22 13.0001 22C10.614 21.9974 8.32633 21.0483 6.63908 19.3611C4.95182 17.6738 4.00276 15.3862 4.00012 13Z" fill="#CFCFCF"/>
</svg>
