<svg width="17" height="11" viewBox="0 0 17 11" fill="none" xmlns="http://www.w3.org/2000/svg">
<path d="M8.5 9L9.59919 10.0207C9.31537 10.3263 8.9171 10.5 8.5 10.5C8.0829 10.5 7.68463 10.3263 7.40081 10.0207L8.5 9ZM13.9008 0.979323C14.4645 0.372257 15.4136 0.337106 16.0207 0.90081C16.6277 1.46451 16.6629 2.41361 16.0992 3.02068L13.9008 0.979323ZM0.90081 3.02068C0.337106 2.41361 0.372257 1.46451 0.979323 0.900809C1.58639 0.337106 2.53549 0.372257 3.09919 0.979323L0.90081 3.02068ZM7.40081 7.97932L13.9008 0.979323L16.0992 3.02068L9.59919 10.0207L7.40081 7.97932ZM3.09919 0.979323L9.59919 7.97932L7.40081 10.0207L0.90081 3.02068L3.09919 0.979323Z" fill="#616161"/>
</svg>
