<svg width="110" height="15" viewBox="0 0 110 15" fill="none" xmlns="http://www.w3.org/2000/svg">
<path d="M0.134 13V0.399999H2.528L4.94 7.852H5.066L7.532 0.399999H9.836V13H8.252V2.29L5.84 9.652H4.13L1.718 2.272V13H0.134ZM12.2847 13V0.399999H13.8687V13H12.2847ZM19.4015 13C18.3095 13 17.4635 12.724 16.8635 12.172C16.2635 11.62 15.9635 10.81 15.9635 9.742V3.658C15.9635 2.59 16.2635 1.78 16.8635 1.228C17.4635 0.675999 18.3095 0.399999 19.4015 0.399999H21.8135V1.588H19.4015C18.8495 1.588 18.3995 1.75 18.0515 2.074C17.7155 2.386 17.5475 2.806 17.5475 3.334V10.066C17.5475 10.594 17.7155 11.02 18.0515 11.344C18.3995 11.656 18.8495 11.812 19.4015 11.812H21.8135V13H19.4015ZM23.482 0.399999H26.812C27.916 0.399999 28.732 0.681999 29.26 1.246C29.788 1.798 30.052 2.632 30.052 3.748C30.052 4.588 29.89 5.32 29.566 5.944C29.242 6.568 28.78 7 28.18 7.24L30.682 13H29.134L26.686 7.474H25.03V13H23.482V0.399999ZM26.344 6.286C27.028 6.286 27.556 6.052 27.928 5.584C28.312 5.104 28.504 4.492 28.504 3.748C28.504 3.04 28.318 2.506 27.946 2.146C27.586 1.774 27.052 1.588 26.344 1.588H25.066V6.286H26.344ZM35.2569 13.126C34.1409 13.126 33.2889 12.844 32.7009 12.28C32.1129 11.704 31.8189 10.906 31.8189 9.886V3.514C31.8189 2.494 32.1129 1.702 32.7009 1.138C33.2889 0.562 34.1409 0.274 35.2569 0.274C36.3849 0.274 37.2429 0.562 37.8309 1.138C38.4189 1.702 38.7129 2.494 38.7129 3.514V9.886C38.7129 10.906 38.4189 11.704 37.8309 12.28C37.2429 12.844 36.3849 13.126 35.2569 13.126ZM35.2569 11.938C35.7849 11.938 36.2289 11.788 36.5889 11.488C36.9489 11.176 37.1289 10.744 37.1289 10.192V3.208C37.1289 2.656 36.9489 2.23 36.5889 1.93C36.2289 1.618 35.7849 1.462 35.2569 1.462C34.7289 1.462 34.2849 1.618 33.9249 1.93C33.5769 2.23 33.4029 2.656 33.4029 3.208V10.192C33.4029 10.744 33.5769 11.176 33.9249 11.488C34.2849 11.788 34.7289 11.938 35.2569 11.938ZM39.4824 14.188V13H44.8824V14.188H39.4824ZM46.0665 13V0.399999H48.7125L51.6465 11.29V0.399999H53.2485V13H50.9805L47.6505 1.552V13H46.0665ZM55.7378 13V0.399999H61.2278V1.624H57.3218V5.656H60.4898V6.88H57.3218V11.776H61.4078V13H55.7378ZM65.003 13V1.588H62.483V0.399999H69.107V1.588H66.587V13H65.003ZM72.8727 13L70.2087 0.399999H71.7747L73.9167 11.47L75.5907 3.676H77.2827L78.9747 11.47L81.0987 0.399999H82.6647L80.0547 13H77.9307L76.4547 5.458L74.9967 13H72.8727ZM87.6222 13.126C86.5062 13.126 85.6542 12.844 85.0662 12.28C84.4782 11.704 84.1842 10.906 84.1842 9.886V3.514C84.1842 2.494 84.4782 1.702 85.0662 1.138C85.6542 0.562 86.5062 0.274 87.6222 0.274C88.7502 0.274 89.6082 0.562 90.1962 1.138C90.7842 1.702 91.0782 2.494 91.0782 3.514V9.886C91.0782 10.906 90.7842 11.704 90.1962 12.28C89.6082 12.844 88.7502 13.126 87.6222 13.126ZM87.6222 11.938C88.1502 11.938 88.5942 11.788 88.9542 11.488C89.3142 11.176 89.4942 10.744 89.4942 10.192V3.208C89.4942 2.656 89.3142 2.23 88.9542 1.93C88.5942 1.618 88.1502 1.462 87.6222 1.462C87.0942 1.462 86.6502 1.618 86.2902 1.93C85.9422 2.23 85.7682 2.656 85.7682 3.208V10.192C85.7682 10.744 85.9422 11.176 86.2902 11.488C86.6502 11.788 87.0942 11.938 87.6222 11.938ZM93.1617 0.399999H96.4917C97.5957 0.399999 98.4117 0.681999 98.9397 1.246C99.4677 1.798 99.7317 2.632 99.7317 3.748C99.7317 4.588 99.5697 5.32 99.2457 5.944C98.9217 6.568 98.4597 7 97.8597 7.24L100.362 13H98.8137L96.3657 7.474H94.7097V13H93.1617V0.399999ZM96.0237 6.286C96.7077 6.286 97.2357 6.052 97.6077 5.584C97.9917 5.104 98.1837 4.492 98.1837 3.748C98.1837 3.04 97.9977 2.506 97.6257 2.146C97.2657 1.774 96.7317 1.588 96.0237 1.588H94.7457V6.286H96.0237ZM102.039 13V0.399999H103.569V5.908L107.295 0.399999H108.861L105.189 6.016L109.401 13H107.799L104.271 7.132L103.569 8.032V13H102.039Z" fill="#0029FF"/>
</svg>
