<svg width="347" height="42" viewBox="0 0 347 42" fill="none" xmlns="http://www.w3.org/2000/svg">
<path d="M30.856 10.332C32.8187 10.332 34.5667 10.746 36.1 11.574C37.6333 12.3713 38.8447 13.5827 39.734 15.208C40.6233 16.8333 41.068 18.8113 41.068 21.142V36H36.928V21.74C36.928 19.2253 36.2993 17.3087 35.042 15.99C33.8153 14.6407 32.144 13.966 30.028 13.966C27.8507 13.966 26.118 14.6713 24.83 16.082C23.542 17.462 22.898 19.4707 22.898 22.108V36H18.758V21.74C18.758 19.2253 18.1293 17.3087 16.872 15.99C15.6453 14.6407 13.974 13.966 11.858 13.966C9.68067 13.966 7.948 14.6713 6.66 16.082C5.372 17.462 4.728 19.4707 4.728 22.108V36H0.542V10.792H4.728V14.426C5.556 13.1073 6.66 12.0953 8.04 11.39C9.45067 10.6847 10.9993 10.332 12.686 10.332C14.802 10.332 16.6727 10.8073 18.298 11.758C19.9233 12.7087 21.1347 14.104 21.932 15.944C22.6373 14.1653 23.8027 12.7853 25.428 11.804C27.0533 10.8227 28.8627 10.332 30.856 10.332ZM50.0966 6.698C49.2992 6.698 48.6246 6.422 48.0726 5.87C47.5206 5.318 47.2446 4.64333 47.2446 3.846C47.2446 3.04867 47.5206 2.374 48.0726 1.822C48.6246 1.27 49.2992 0.993998 50.0966 0.993998C50.8632 0.993998 51.5072 1.27 52.0286 1.822C52.5806 2.374 52.8566 3.04867 52.8566 3.846C52.8566 4.64333 52.5806 5.318 52.0286 5.87C51.5072 6.422 50.8632 6.698 50.0966 6.698ZM52.1206 10.792V36H47.9346V10.792H52.1206ZM57.6909 23.35C57.6909 20.7433 58.2122 18.474 59.2549 16.542C60.2976 14.5793 61.7389 13.0613 63.5789 11.988C65.4496 10.9147 67.5809 10.378 69.9729 10.378C73.0702 10.378 75.6156 11.1293 77.6089 12.632C79.6329 14.1347 80.9669 16.22 81.6109 18.888H77.1029C76.6736 17.3547 75.8302 16.1433 74.5729 15.254C73.3462 14.3647 71.8129 13.92 69.9729 13.92C67.5809 13.92 65.6489 14.748 64.1769 16.404C62.7049 18.0293 61.9689 20.3447 61.9689 23.35C61.9689 26.386 62.7049 28.732 64.1769 30.388C65.6489 32.044 67.5809 32.872 69.9729 32.872C71.8129 32.872 73.3462 32.4427 74.5729 31.584C75.7996 30.7253 76.6429 29.4987 77.1029 27.904H81.6109C80.9362 30.48 79.5869 32.55 77.5629 34.114C75.5389 35.6473 73.0089 36.414 69.9729 36.414C67.5809 36.414 65.4496 35.8773 63.5789 34.804C61.7389 33.7307 60.2976 32.2127 59.2549 30.25C58.2122 28.2873 57.6909 25.9873 57.6909 23.35ZM91.3823 14.886C92.1183 13.4447 93.161 12.3253 94.5103 11.528C95.8903 10.7307 97.5616 10.332 99.5243 10.332V14.656H98.4203C93.7283 14.656 91.3823 17.2013 91.3823 22.292V36H87.1963V10.792H91.3823V14.886ZM115.35 36.414C112.989 36.414 110.842 35.8773 108.91 34.804C107.009 33.7307 105.506 32.2127 104.402 30.25C103.329 28.2567 102.792 25.9567 102.792 23.35C102.792 20.774 103.344 18.5047 104.448 16.542C105.583 14.5487 107.116 13.0307 109.048 11.988C110.98 10.9147 113.142 10.378 115.534 10.378C117.926 10.378 120.088 10.9147 122.02 11.988C123.952 13.0307 125.47 14.5333 126.574 16.496C127.709 18.4587 128.276 20.7433 128.276 23.35C128.276 25.9567 127.694 28.2567 126.528 30.25C125.394 32.2127 123.845 33.7307 121.882 34.804C119.92 35.8773 117.742 36.414 115.35 36.414ZM115.35 32.734C116.853 32.734 118.264 32.3813 119.582 31.676C120.901 30.9707 121.959 29.9127 122.756 28.502C123.584 27.0913 123.998 25.374 123.998 23.35C123.998 21.326 123.6 19.6087 122.802 18.198C122.005 16.7873 120.962 15.7447 119.674 15.07C118.386 14.3647 116.991 14.012 115.488 14.012C113.955 14.012 112.544 14.3647 111.256 15.07C109.999 15.7447 108.987 16.7873 108.22 18.198C107.454 19.6087 107.07 21.326 107.07 23.35C107.07 25.4047 107.438 27.1373 108.174 28.548C108.941 29.9587 109.953 31.0167 111.21 31.722C112.468 32.3967 113.848 32.734 115.35 32.734ZM159.54 37.748V41.612H135.068V37.748H159.54ZM179.799 10.332C182.865 10.332 185.349 11.2673 187.251 13.138C189.152 14.978 190.103 17.646 190.103 21.142V36H185.963V21.74C185.963 19.2253 185.334 17.3087 184.077 15.99C182.819 14.6407 181.102 13.966 178.925 13.966C176.717 13.966 174.953 14.656 173.635 16.036C172.347 17.416 171.703 19.4247 171.703 22.062V36H167.517V10.792H171.703V14.38C172.531 13.092 173.65 12.0953 175.061 11.39C176.502 10.6847 178.081 10.332 179.799 10.332ZM219.94 22.43C219.94 23.2273 219.894 24.0707 219.802 24.96H199.654C199.808 27.444 200.651 29.3913 202.184 30.802C203.748 32.182 205.634 32.872 207.842 32.872C209.652 32.872 211.154 32.458 212.35 31.63C213.577 30.7713 214.436 29.6367 214.926 28.226H219.434C218.76 30.6487 217.41 32.6267 215.386 34.16C213.362 35.6627 210.848 36.414 207.842 36.414C205.45 36.414 203.304 35.8773 201.402 34.804C199.532 33.7307 198.06 32.2127 196.986 30.25C195.913 28.2567 195.376 25.9567 195.376 23.35C195.376 20.7433 195.898 18.4587 196.94 16.496C197.983 14.5333 199.44 13.0307 201.31 11.988C203.212 10.9147 205.389 10.378 207.842 10.378C210.234 10.378 212.35 10.8993 214.19 11.942C216.03 12.9847 217.441 14.426 218.422 16.266C219.434 18.0753 219.94 20.13 219.94 22.43ZM215.616 21.556C215.616 19.9613 215.264 18.5967 214.558 17.462C213.853 16.2967 212.887 15.4227 211.66 14.84C210.464 14.2267 209.13 13.92 207.658 13.92C205.542 13.92 203.733 14.5947 202.23 15.944C200.758 17.2933 199.915 19.164 199.7 21.556H215.616ZM230.572 14.242V29.1C230.572 30.3267 230.832 31.2007 231.354 31.722C231.875 32.2127 232.78 32.458 234.068 32.458H237.15V36H233.378C231.047 36 229.299 35.4633 228.134 34.39C226.968 33.3167 226.386 31.5533 226.386 29.1V14.242H223.12V10.792H226.386V4.444H230.572V10.792H237.15V14.242H230.572ZM275.802 10.792L267.936 36H263.612L257.54 15.99L251.468 36H247.144L239.232 10.792H243.51L249.306 31.952L255.562 10.792H259.84L265.958 31.998L271.662 10.792H275.802ZM290.95 36.414C288.589 36.414 286.442 35.8773 284.51 34.804C282.609 33.7307 281.106 32.2127 280.002 30.25C278.929 28.2567 278.392 25.9567 278.392 23.35C278.392 20.774 278.944 18.5047 280.048 16.542C281.183 14.5487 282.716 13.0307 284.648 11.988C286.58 10.9147 288.742 10.378 291.134 10.378C293.526 10.378 295.688 10.9147 297.62 11.988C299.552 13.0307 301.07 14.5333 302.174 16.496C303.309 18.4587 303.876 20.7433 303.876 23.35C303.876 25.9567 303.293 28.2567 302.128 30.25C300.993 32.2127 299.445 33.7307 297.482 34.804C295.519 35.8773 293.342 36.414 290.95 36.414ZM290.95 32.734C292.453 32.734 293.863 32.3813 295.182 31.676C296.501 30.9707 297.559 29.9127 298.356 28.502C299.184 27.0913 299.598 25.374 299.598 23.35C299.598 21.326 299.199 19.6087 298.402 18.198C297.605 16.7873 296.562 15.7447 295.274 15.07C293.986 14.3647 292.591 14.012 291.088 14.012C289.555 14.012 288.144 14.3647 286.856 15.07C285.599 15.7447 284.587 16.7873 283.82 18.198C283.053 19.6087 282.67 21.326 282.67 23.35C282.67 25.4047 283.038 27.1373 283.774 28.548C284.541 29.9587 285.553 31.0167 286.81 31.722C288.067 32.3967 289.447 32.734 290.95 32.734ZM313.566 14.886C314.302 13.4447 315.345 12.3253 316.694 11.528C318.074 10.7307 319.745 10.332 321.708 10.332V14.656H320.604C315.912 14.656 313.566 17.2013 313.566 22.292V36H309.38V10.792H313.566V14.886ZM340.616 36L330.726 24.868V36H326.54V1.96H330.726V21.97L340.432 10.792H346.274L334.406 23.35L346.32 36H340.616Z" fill="#F6F6F6"/>
</svg>
