<svg width="287" height="41" viewBox="0 0 287 41" fill="none" xmlns="http://www.w3.org/2000/svg">
<path d="M2.876 14.898C3.21333 14.898 3.382 16.922 3.382 20.97C3.382 21.614 3.36667 22.6413 3.336 24.052C3.336 25.4627 3.336 26.1987 3.336 26.26C3.64267 22.7947 3.94933 20.4333 4.256 19.176C4.59333 17.9187 4.93067 16.8453 5.268 15.956C5.60533 15.036 5.97333 14.3307 6.372 13.84C7.35333 12.5827 8.488 11.954 9.776 11.954C11.4013 11.954 12.6127 12.7667 13.41 14.392C14.238 16.0173 14.6673 18.1793 14.698 20.878C15.4647 15.3273 17.4887 12.552 20.77 12.552C22.1807 12.552 23.1773 13.2727 23.76 14.714C24.3427 16.1553 24.634 17.8727 24.634 19.866L24.496 26.858C24.496 31.458 25.4927 33.758 27.486 33.758L30.108 33.344C30.2613 33.344 30.4147 33.3593 30.568 33.39C30.2613 33.85 29.694 34.218 28.866 34.494C28.038 34.7393 27.2253 34.862 26.428 34.862C24.864 34.862 23.6833 34.172 22.886 32.792C22.1193 31.3813 21.7053 29.9093 21.644 28.376C21.5827 26.812 21.552 25.478 21.552 24.374L21.644 20.28C21.644 18.9307 21.552 17.6427 21.368 16.416C21.2147 15.1893 20.7853 14.576 20.08 14.576C19.0373 14.576 18.0253 16.7687 17.044 21.154C16.0933 25.5087 15.5107 29.6487 15.296 33.574C14.7747 34.126 14.1153 34.4173 13.318 34.448C13.0727 34.448 12.8427 34.402 12.628 34.31C12.352 32.7153 12.1987 30.0627 12.168 26.352C12.168 22.6107 11.984 19.636 11.616 17.428C11.248 15.22 10.42 14.116 9.132 14.116C8.27333 14.116 7.568 15.0667 7.016 16.968C6.12667 19.9427 5.32933 24.5733 4.624 30.86C4.44 32.332 4.302 33.39 4.21 34.034C3.566 34.586 2.90667 34.862 2.232 34.862L1.542 34.77C1.11267 29.6487 0.898 23.3007 0.898 15.726C1.23533 15.174 1.89467 14.898 2.876 14.898ZM34.7066 1.144C34.6759 1.84933 34.6606 2.63133 34.6606 3.49C34.6606 4.34867 34.7066 5.238 34.7986 6.158C34.3692 6.64867 33.7866 6.894 33.0506 6.894C32.1306 6.894 31.6706 6.158 31.6706 4.686C31.6706 4.62467 31.6706 4.39467 31.6706 3.996C31.6706 3.59733 31.6706 3.24467 31.6706 2.938C31.7012 2.60067 31.7626 2.21733 31.8546 1.788C32.0692 1.052 32.5446 0.683998 33.2806 0.683998C34.0166 0.683998 34.4919 0.837331 34.7066 1.144ZM31.7626 23.684C31.7626 17.6733 32.0692 14.208 32.6826 13.288C32.8972 12.9507 33.1579 12.782 33.4646 12.782C33.7712 12.782 34.2772 12.9507 34.9826 13.288C34.8292 15.8947 34.7526 18.7313 34.7526 21.798C34.7526 21.798 34.7832 25.1867 34.8446 31.964C34.8446 32.9147 34.6299 33.5893 34.2006 33.988C33.8019 34.356 33.4186 34.54 33.0506 34.54C32.7132 34.54 32.3606 34.448 31.9926 34.264C31.8392 30.2773 31.7626 26.7507 31.7626 23.684ZM56.1055 17.75C55.5229 18.3327 54.9402 18.624 54.3575 18.624C53.7749 18.624 53.2995 18.3787 52.9315 17.888C52.5942 17.3667 52.3182 16.8147 52.1035 16.232C51.8889 15.6187 51.4902 15.0667 50.9075 14.576C50.3555 14.0547 49.6502 13.794 48.7915 13.794C47.5955 13.9167 46.5069 14.7753 45.5255 16.37C44.5442 17.934 43.8235 19.6667 43.3635 21.568C42.9035 23.4693 42.6735 25.2633 42.6735 26.95C42.6735 28.606 43.1335 30.0473 44.0535 31.274C45.0042 32.47 46.2769 33.068 47.8715 33.068C49.7115 33.068 51.1835 32.424 52.2875 31.136C52.7475 30.584 53.1769 30.032 53.5755 29.48C54.5569 28.192 55.4462 27.548 56.2435 27.548C56.5195 27.548 56.9182 27.6247 57.4395 27.778C57.4395 28.9127 56.3969 30.4153 54.3115 32.286C52.2569 34.126 50.0182 35.046 47.5955 35.046C45.1729 35.046 43.2562 34.2793 41.8455 32.746C40.4655 31.182 39.7755 29.1733 39.7755 26.72C39.7755 23.5613 40.5422 20.4027 42.0755 17.244C42.8422 15.7107 43.8849 14.4533 45.2035 13.472C46.5222 12.46 47.9942 11.954 49.6195 11.954C51.2449 11.954 52.5482 12.506 53.5295 13.61C54.5415 14.6833 55.4002 16.0633 56.1055 17.75ZM65.6868 30.492L65.8248 33.114C65.8248 33.7887 65.6255 34.264 65.2268 34.54C64.8588 34.7853 64.4755 34.908 64.0768 34.908C63.7088 34.908 63.3255 34.8467 62.9268 34.724C62.2522 31.1667 61.7308 26.7353 61.3628 21.43C61.0255 16.1247 60.8262 13.1193 60.7648 12.414C61.2248 11.9847 61.7002 11.77 62.1908 11.77C62.7122 11.77 63.1722 11.8313 63.5708 11.954C63.6935 12.8433 63.7855 14.806 63.8468 17.842C63.9082 20.878 63.9848 22.7793 64.0768 23.546C64.5062 20.97 65.2728 18.5627 66.3768 16.324C66.9902 15.0667 67.7875 14.07 68.7688 13.334C69.7808 12.5673 70.8542 12.184 71.9888 12.184C73.1542 12.184 74.2122 12.7053 75.1628 13.748C76.1442 14.76 76.6348 15.68 76.6348 16.508C76.6348 16.8147 76.4508 17.06 76.0828 17.244C75.7148 17.3973 75.3008 17.474 74.8408 17.474C74.4115 17.474 74.0742 17.3053 73.8288 16.968C73.5835 16.6307 73.4148 16.2627 73.3228 15.864C73.2308 15.4347 73.0315 15.0513 72.7248 14.714C72.4182 14.3767 72.0042 14.208 71.4828 14.208C70.1028 14.208 68.9222 15.45 67.9408 17.934C66.4382 21.6447 65.6868 25.8307 65.6868 30.492ZM80.8913 15.91C82.4553 13.518 84.7093 12.322 87.6533 12.322C90.5973 12.322 92.9433 13.518 94.6913 15.91C96.4699 18.302 97.3593 21.0313 97.3593 24.098C97.3593 27.134 96.3933 29.71 94.4613 31.826C92.5293 33.942 90.0759 35 87.1013 35C84.1266 35 81.9646 34.172 80.6153 32.516C79.2659 30.8293 78.5913 28.468 78.5913 25.432C78.5913 21.476 79.3579 18.302 80.8913 15.91ZM82.9153 18.348C82.5166 19.544 82.2099 20.74 81.9953 21.936C81.8113 23.132 81.7193 24.2513 81.7193 25.294C81.7193 26.306 81.7959 27.2413 81.9493 28.1C82.1026 28.928 82.3633 29.756 82.7313 30.584C83.0993 31.3813 83.6513 32.0253 84.3873 32.516C85.1233 32.976 85.9973 33.206 87.0093 33.206C89.0639 33.206 90.7813 32.3627 92.1613 30.676C93.5719 28.9893 94.2773 26.95 94.2773 24.558C94.2773 22.166 93.6333 19.8507 92.3453 17.612C91.0879 15.3427 89.5393 14.208 87.6993 14.208C86.5953 14.208 85.6293 14.5913 84.8013 15.358C83.9733 16.1247 83.3446 17.1213 82.9153 18.348ZM105.374 38.634C107.674 38.9407 110.051 39.094 112.504 39.094C114.957 39.094 117.671 39.0173 120.646 38.864C123.651 38.7413 125.844 38.6647 127.224 38.634C127.715 38.634 127.96 38.7567 127.96 39.002C127.96 39.094 127.822 39.3087 127.546 39.646C127.301 40.014 126.979 40.2133 126.58 40.244C126.212 40.2747 125.123 40.336 123.314 40.428C118.223 40.6427 113.669 40.75 109.652 40.75C105.665 40.75 103.672 40.428 103.672 39.784C103.672 39.4773 103.856 39.2013 104.224 38.956C104.592 38.7413 104.975 38.634 105.374 38.634ZM154.116 33.712C153.564 34.2947 152.935 34.586 152.23 34.586C150.911 34.586 149.93 33.8807 149.286 32.47C148.642 31.0593 148.259 29.342 148.136 27.318C148.044 25.294 147.983 23.27 147.952 21.246C147.921 19.222 147.753 17.5047 147.446 16.094C147.17 14.6833 146.633 13.978 145.836 13.978C144.763 13.978 143.843 14.944 143.076 16.876C142.34 18.808 141.819 20.9547 141.512 23.316C140.653 29.9093 139.825 33.6047 139.028 34.402C138.476 34.678 138.001 34.816 137.602 34.816C137.203 34.816 136.866 34.77 136.59 34.678C135.946 31.8567 135.532 26.996 135.348 20.096C135.287 16.6613 135.225 14.438 135.164 13.426C135.808 12.9967 136.36 12.782 136.82 12.782C137.28 12.782 137.648 12.828 137.924 12.92C138.077 14.2387 138.154 16.9373 138.154 21.016C138.185 25.0947 138.215 27.4407 138.246 28.054C138.399 27.41 138.583 26.3673 138.798 24.926C139.043 23.4847 139.258 22.304 139.442 21.384C139.626 20.4333 139.917 19.3293 140.316 18.072C140.715 16.8147 141.159 15.818 141.65 15.082C142.141 14.3153 142.815 13.6713 143.674 13.15C144.533 12.598 145.499 12.322 146.572 12.322C148.013 12.322 149.056 12.9813 149.7 14.3C150.375 15.588 150.743 17.198 150.804 19.13C150.865 21.062 150.896 23.0247 150.896 25.018C150.927 27.0113 151.172 28.836 151.632 30.492C152.123 32.148 152.951 33.2213 154.116 33.712ZM159.433 25.662C159.372 26.2753 159.341 26.6893 159.341 26.904C159.341 28.744 159.893 30.17 160.997 31.182C162.132 32.194 163.466 32.7 164.999 32.7C166.532 32.7 167.774 32.4853 168.725 32.056C169.706 31.6267 170.412 31.1667 170.841 30.676C171.945 29.296 172.957 28.606 173.877 28.606C174.214 28.606 174.613 28.698 175.073 28.882C174.766 30.3847 173.601 31.7647 171.577 33.022C169.584 34.2487 167.069 34.862 164.033 34.862C161.886 34.862 160.031 34.1873 158.467 32.838C156.934 31.458 156.167 29.5873 156.167 27.226C156.167 24.8647 156.627 22.58 157.547 20.372C158.498 18.1333 159.847 16.232 161.595 14.668C163.374 13.0733 165.168 12.276 166.977 12.276C168.817 12.276 170.289 12.6593 171.393 13.426C172.528 14.162 173.095 15.2507 173.095 16.692C173.095 19.36 171.899 21.568 169.507 23.316C167.146 25.0333 164.631 25.892 161.963 25.892C161.258 25.892 160.414 25.8153 159.433 25.662ZM162.929 24.144C164.37 24.144 165.658 23.684 166.793 22.764C167.928 21.844 168.725 20.878 169.185 19.866C169.676 18.854 169.921 17.934 169.921 17.106C169.921 16.278 169.599 15.5573 168.955 14.944C168.311 14.3 167.56 13.978 166.701 13.978C165.168 13.978 163.742 15.036 162.423 17.152C161.135 19.268 160.215 21.4607 159.663 23.73C161.012 24.006 162.101 24.144 162.929 24.144ZM178.875 15.726C177.495 15.726 176.56 15.3887 176.069 14.714C176.069 14.2233 176.269 13.84 176.667 13.564C177.097 13.288 177.557 13.1193 178.047 13.058C178.538 12.966 179.335 12.8893 180.439 12.828C180.531 12 180.577 10.942 180.577 9.654C180.608 8.33533 180.639 7.216 180.669 6.296C180.761 3.87333 181.129 2.386 181.773 1.834C182.049 1.58867 182.341 1.466 182.647 1.466C182.985 1.466 183.276 1.49666 183.521 1.558C183.613 3.766 183.659 5.1 183.659 5.56L183.383 12.46C183.445 12.4907 183.613 12.506 183.889 12.506L187.201 12.368C189.593 12.368 190.789 12.736 190.789 13.472C190.789 14.5147 190.36 15.128 189.501 15.312C189.103 15.404 188.627 15.45 188.075 15.45C187.554 15.45 186.864 15.3887 186.005 15.266C185.177 15.1127 184.579 15.036 184.211 15.036C183.843 15.036 183.598 15.0513 183.475 15.082C183.383 15.9713 183.337 16.8607 183.337 17.75C183.337 18.6087 183.353 19.6973 183.383 21.016C183.445 22.304 183.567 23.8527 183.751 25.662C183.966 27.4713 184.411 29.0353 185.085 30.354C185.76 31.642 186.619 32.286 187.661 32.286C188.183 32.286 188.796 32.0867 189.501 31.688C190.207 31.2587 190.743 31.044 191.111 31.044C191.51 31.044 191.847 31.136 192.123 31.32C192.43 31.4733 192.583 31.6573 192.583 31.872C192.583 32.516 191.924 33.1447 190.605 33.758C189.317 34.3407 188.213 34.632 187.293 34.632C183.92 34.632 181.819 31.4427 180.991 25.064C180.746 23.224 180.562 20.0653 180.439 15.588C179.949 15.68 179.427 15.726 178.875 15.726ZM207.69 29.664C207.199 31.0747 206.248 32.2707 204.838 33.252C203.458 34.2333 201.94 34.724 200.284 34.724C198.658 34.724 197.386 33.9113 196.466 32.286C195.576 30.63 195.132 28.3453 195.132 25.432C195.132 17.2133 196.343 13.104 198.766 13.104C199.072 13.104 199.456 13.15 199.916 13.242C199.824 13.7327 199.609 14.668 199.272 16.048C198.597 18.7467 198.26 21.1233 198.26 23.178C198.26 25.2327 198.551 27.41 199.134 29.71C199.716 31.9793 200.544 33.114 201.618 33.114C202.17 33.114 202.706 32.7613 203.228 32.056C203.749 31.3507 204.163 30.6147 204.47 29.848C204.776 29.0507 205.098 28.146 205.436 27.134C205.773 26.122 205.988 25.5087 206.08 25.294C205.62 23.5153 205.39 21.706 205.39 19.866C205.39 19.774 205.39 19.498 205.39 19.038C205.39 18.5473 205.405 18.072 205.436 17.612C205.466 17.152 205.558 16.6 205.712 15.956C206.018 14.668 206.846 14.024 208.196 14.024C209.33 14.024 209.898 15.7413 209.898 19.176C209.898 19.7893 209.806 20.6787 209.622 21.844C209.468 23.0093 209.392 23.822 209.392 24.282C209.392 25.6927 210.066 27.5173 211.416 29.756C212.765 31.9947 214.022 33.114 215.188 33.114C216.384 33.114 217.258 32.4393 217.81 31.09C218.362 29.7407 218.638 28.238 218.638 26.582C218.638 24.6807 218.469 23.2393 218.132 22.258C217.825 21.246 217.626 20.5867 217.534 20.28C217.472 19.9733 217.273 19.498 216.936 18.854C216.629 18.1793 216.43 17.75 216.338 17.566C216.276 17.382 216.046 16.9373 215.648 16.232C215.249 15.5267 215.019 15.128 214.958 15.036C214.068 13.472 213.547 12.6133 213.394 12.46C214.16 11.816 214.866 11.494 215.51 11.494C217.38 12.8433 218.868 15.0513 219.972 18.118C221.076 21.154 221.628 23.9293 221.628 26.444C221.628 28.928 221.091 30.8907 220.018 32.332C218.975 33.7427 217.334 34.448 215.096 34.448C213.532 34.448 212.044 34.0187 210.634 33.16C209.254 32.2707 208.272 31.1053 207.69 29.664ZM227.786 15.91C229.35 13.518 231.604 12.322 234.548 12.322C237.492 12.322 239.838 13.518 241.586 15.91C243.364 18.302 244.254 21.0313 244.254 24.098C244.254 27.134 243.288 29.71 241.356 31.826C239.424 33.942 236.97 35 233.996 35C231.021 35 228.859 34.172 227.51 32.516C226.16 30.8293 225.486 28.468 225.486 25.432C225.486 21.476 226.252 18.302 227.786 15.91ZM229.81 18.348C229.411 19.544 229.104 20.74 228.89 21.936C228.706 23.132 228.614 24.2513 228.614 25.294C228.614 26.306 228.69 27.2413 228.844 28.1C228.997 28.928 229.258 29.756 229.626 30.584C229.994 31.3813 230.546 32.0253 231.282 32.516C232.018 32.976 232.892 33.206 233.904 33.206C235.958 33.206 237.676 32.3627 239.056 30.676C240.466 28.9893 241.172 26.95 241.172 24.558C241.172 22.166 240.528 19.8507 239.24 17.612C237.982 15.3427 236.434 14.208 234.594 14.208C233.49 14.208 232.524 14.5913 231.696 15.358C230.868 16.1247 230.239 17.1213 229.81 18.348ZM253.281 30.492L253.419 33.114C253.419 33.7887 253.219 34.264 252.821 34.54C252.453 34.7853 252.069 34.908 251.671 34.908C251.303 34.908 250.919 34.8467 250.521 34.724C249.846 31.1667 249.325 26.7353 248.957 21.43C248.619 16.1247 248.42 13.1193 248.359 12.414C248.819 11.9847 249.294 11.77 249.785 11.77C250.306 11.77 250.766 11.8313 251.165 11.954C251.287 12.8433 251.379 14.806 251.441 17.842C251.502 20.878 251.579 22.7793 251.671 23.546C252.1 20.97 252.867 18.5627 253.971 16.324C254.584 15.0667 255.381 14.07 256.363 13.334C257.375 12.5673 258.448 12.184 259.583 12.184C260.748 12.184 261.806 12.7053 262.757 13.748C263.738 14.76 264.229 15.68 264.229 16.508C264.229 16.8147 264.045 17.06 263.677 17.244C263.309 17.3973 262.895 17.474 262.435 17.474C262.005 17.474 261.668 17.3053 261.423 16.968C261.177 16.6307 261.009 16.2627 260.917 15.864C260.825 15.4347 260.625 15.0513 260.319 14.714C260.012 14.3767 259.598 14.208 259.077 14.208C257.697 14.208 256.516 15.45 255.535 17.934C254.032 21.6447 253.281 25.8307 253.281 30.492ZM270.827 0.867998C270.857 3.01466 270.873 4.62466 270.873 5.698C270.873 6.74066 270.857 7.78333 270.827 8.826C270.827 9.86867 270.781 11.8927 270.689 14.898C270.597 17.8727 270.535 20.234 270.505 21.982C271.67 21.1847 273.065 19.958 274.691 18.302C276.316 16.6153 277.788 15.174 279.107 13.978C281.192 12.1073 282.679 11.54 283.569 12.276C283.906 12.552 284.013 12.8127 283.891 13.058C283.584 13.702 282.879 14.484 281.775 15.404C280.701 16.324 279.429 17.3667 277.957 18.532C276.485 19.6973 275.319 20.7707 274.461 21.752C276.699 22.0587 278.493 23.316 279.843 25.524C280.425 26.536 280.993 27.548 281.545 28.56C282.955 31.228 284.489 33.0373 286.145 33.988C285.531 34.6013 284.826 34.908 284.029 34.908C283.231 34.908 282.434 34.5247 281.637 33.758C280.87 32.9913 280.195 32.056 279.613 30.952C279.061 29.848 278.493 28.744 277.911 27.64C276.592 24.972 275.059 23.638 273.311 23.638C272.483 23.638 271.777 23.914 271.195 24.466C270.612 24.9873 270.321 25.5393 270.321 26.122C270.321 29.802 270.259 32.5313 270.137 34.31C269.707 34.8927 269.247 35.184 268.757 35.184C268.603 35.184 268.435 35.1533 268.251 35.092C267.576 34.816 267.239 34.2487 267.239 33.39C267.269 32.5313 267.361 29.9247 267.515 25.57C267.852 14.438 268.021 7.32333 268.021 4.226C268.021 2.78467 268.159 1.81867 268.435 1.328C268.741 0.837332 269.094 0.591999 269.493 0.591999C269.922 0.591999 270.367 0.683999 270.827 0.867998Z" fill="#F6F6F6"/>
</svg>
