<svg width="222" height="32" viewBox="0 0 222 32" fill="none" xmlns="http://www.w3.org/2000/svg">
<path d="M17.74 30L16 29L20 22H26C26.5304 22 27.0391 21.7893 27.4142 21.4142C27.7893 21.0391 28 20.5304 28 20V8C28 7.46957 27.7893 6.96086 27.4142 6.58579C27.0391 6.21071 26.5304 6 26 6H6C5.46957 6 4.96086 6.21071 4.58579 6.58579C4.21071 6.96086 4 7.46957 4 8V20C4 20.5304 4.21071 21.0391 4.58579 21.4142C4.96086 21.7893 5.46957 22 6 22H15V24H6C4.93913 24 3.92172 23.5786 3.17157 22.8284C2.42143 22.0783 2 21.0609 2 20V8C2 6.93913 2.42143 5.92172 3.17157 5.17157C3.92172 4.42143 4.93913 4 6 4H26C27.0609 4 28.0783 4.42143 28.8284 5.17157C29.5786 5.92172 30 6.93913 30 8V20C30 21.0609 29.5786 22.0783 28.8284 22.8284C28.0783 23.5786 27.0609 24 26 24H21.16L17.74 30Z" fill="#F6F6F6"/>
<path d="M8 10H24V12H8V10Z" fill="#F6F6F6"/>
<path d="M8 16H18V18H8V16Z" fill="#F6F6F6"/>
<path d="M56.664 10.608C57.688 10.608 58.6 10.824 59.4 11.256C60.2 11.672 60.832 12.304 61.296 13.152C61.76 14 61.992 15.032 61.992 16.248V24H59.832V16.56C59.832 15.248 59.504 14.248 58.848 13.56C58.208 12.856 57.336 12.504 56.232 12.504C55.096 12.504 54.192 12.872 53.52 13.608C52.848 14.328 52.512 15.376 52.512 16.752V24H50.352V16.56C50.352 15.248 50.024 14.248 49.368 13.56C48.728 12.856 47.856 12.504 46.752 12.504C45.616 12.504 44.712 12.872 44.04 13.608C43.368 14.328 43.032 15.376 43.032 16.752V24H40.848V10.848H43.032V12.744C43.464 12.056 44.04 11.528 44.76 11.16C45.496 10.792 46.304 10.608 47.184 10.608C48.288 10.608 49.264 10.856 50.112 11.352C50.96 11.848 51.592 12.576 52.008 13.536C52.376 12.608 52.984 11.888 53.832 11.376C54.68 10.864 55.624 10.608 56.664 10.608ZM66.7026 8.712C66.2866 8.712 65.9346 8.568 65.6466 8.28C65.3586 7.992 65.2146 7.64 65.2146 7.224C65.2146 6.808 65.3586 6.456 65.6466 6.168C65.9346 5.88 66.2866 5.736 66.7026 5.736C67.1026 5.736 67.4386 5.88 67.7106 6.168C67.9986 6.456 68.1426 6.808 68.1426 7.224C68.1426 7.64 67.9986 7.992 67.7106 8.28C67.4386 8.568 67.1026 8.712 66.7026 8.712ZM67.7586 10.848V24H65.5746V10.848H67.7586ZM70.6648 17.4C70.6648 16.04 70.9368 14.856 71.4808 13.848C72.0248 12.824 72.7768 12.032 73.7368 11.472C74.7128 10.912 75.8248 10.632 77.0728 10.632C78.6888 10.632 80.0168 11.024 81.0568 11.808C82.1128 12.592 82.8088 13.68 83.1448 15.072H80.7928C80.5688 14.272 80.1288 13.64 79.4728 13.176C78.8328 12.712 78.0328 12.48 77.0728 12.48C75.8248 12.48 74.8168 12.912 74.0488 13.776C73.2808 14.624 72.8968 15.832 72.8968 17.4C72.8968 18.984 73.2808 20.208 74.0488 21.072C74.8168 21.936 75.8248 22.368 77.0728 22.368C78.0328 22.368 78.8328 22.144 79.4728 21.696C80.1128 21.248 80.5528 20.608 80.7928 19.776H83.1448C82.7928 21.12 82.0888 22.2 81.0328 23.016C79.9768 23.816 78.6568 24.216 77.0728 24.216C75.8248 24.216 74.7128 23.936 73.7368 23.376C72.7768 22.816 72.0248 22.024 71.4808 21C70.9368 19.976 70.6648 18.776 70.6648 17.4ZM88.2429 12.984C88.6269 12.232 89.1709 11.648 89.8749 11.232C90.5949 10.816 91.4669 10.608 92.4909 10.608V12.864H91.9149C89.4669 12.864 88.2429 14.192 88.2429 16.848V24H86.0589V10.848H88.2429V12.984ZM100.748 24.216C99.5161 24.216 98.3961 23.936 97.3881 23.376C96.3961 22.816 95.6121 22.024 95.0361 21C94.4761 19.96 94.1961 18.76 94.1961 17.4C94.1961 16.056 94.4841 14.872 95.0601 13.848C95.6521 12.808 96.4521 12.016 97.4601 11.472C98.4681 10.912 99.5961 10.632 100.844 10.632C102.092 10.632 103.22 10.912 104.228 11.472C105.236 12.016 106.028 12.8 106.604 13.824C107.196 14.848 107.492 16.04 107.492 17.4C107.492 18.76 107.188 19.96 106.58 21C105.988 22.024 105.18 22.816 104.156 23.376C103.132 23.936 101.996 24.216 100.748 24.216ZM100.748 22.296C101.532 22.296 102.268 22.112 102.956 21.744C103.644 21.376 104.196 20.824 104.612 20.088C105.044 19.352 105.26 18.456 105.26 17.4C105.26 16.344 105.052 15.448 104.636 14.712C104.22 13.976 103.676 13.432 103.004 13.08C102.332 12.712 101.604 12.528 100.82 12.528C100.02 12.528 99.2841 12.712 98.6121 13.08C97.9561 13.432 97.4281 13.976 97.0281 14.712C96.6281 15.448 96.4281 16.344 96.4281 17.4C96.4281 18.472 96.6201 19.376 97.0041 20.112C97.4041 20.848 97.9321 21.4 98.5881 21.768C99.2441 22.12 99.9641 22.296 100.748 22.296ZM123.804 24.912V26.928H111.036V24.912H123.804ZM134.373 10.608C135.973 10.608 137.269 11.096 138.261 12.072C139.253 13.032 139.749 14.424 139.749 16.248V24H137.589V16.56C137.589 15.248 137.261 14.248 136.605 13.56C135.949 12.856 135.053 12.504 133.917 12.504C132.765 12.504 131.845 12.864 131.157 13.584C130.485 14.304 130.149 15.352 130.149 16.728V24H127.965V10.848H130.149V12.72C130.581 12.048 131.165 11.528 131.901 11.16C132.653 10.792 133.477 10.608 134.373 10.608ZM155.317 16.92C155.317 17.336 155.293 17.776 155.245 18.24H144.733C144.813 19.536 145.253 20.552 146.053 21.288C146.869 22.008 147.853 22.368 149.005 22.368C149.949 22.368 150.733 22.152 151.357 21.72C151.997 21.272 152.445 20.68 152.701 19.944H155.053C154.701 21.208 153.997 22.24 152.941 23.04C151.885 23.824 150.573 24.216 149.005 24.216C147.757 24.216 146.637 23.936 145.645 23.376C144.669 22.816 143.901 22.024 143.341 21C142.781 19.96 142.501 18.76 142.501 17.4C142.501 16.04 142.773 14.848 143.317 13.824C143.861 12.8 144.621 12.016 145.597 11.472C146.589 10.912 147.725 10.632 149.005 10.632C150.253 10.632 151.357 10.904 152.317 11.448C153.277 11.992 154.013 12.744 154.525 13.704C155.053 14.648 155.317 15.72 155.317 16.92ZM153.061 16.464C153.061 15.632 152.877 14.92 152.509 14.328C152.141 13.72 151.637 13.264 150.997 12.96C150.373 12.64 149.677 12.48 148.909 12.48C147.805 12.48 146.861 12.832 146.077 13.536C145.309 14.24 144.869 15.216 144.757 16.464H153.061ZM160.864 12.648V20.4C160.864 21.04 161 21.496 161.272 21.768C161.544 22.024 162.016 22.152 162.688 22.152H164.296V24H162.328C161.112 24 160.2 23.72 159.592 23.16C158.984 22.6 158.68 21.68 158.68 20.4V12.648H156.976V10.848H158.68V7.536H160.864V10.848H164.296V12.648H160.864ZM184.462 10.848L180.358 24H178.102L174.934 13.56L171.766 24H169.51L165.382 10.848H167.614L170.638 21.888L173.902 10.848H176.134L179.326 21.912L182.302 10.848H184.462ZM192.365 24.216C191.133 24.216 190.013 23.936 189.005 23.376C188.013 22.816 187.229 22.024 186.653 21C186.093 19.96 185.813 18.76 185.813 17.4C185.813 16.056 186.101 14.872 186.677 13.848C187.269 12.808 188.069 12.016 189.077 11.472C190.085 10.912 191.213 10.632 192.461 10.632C193.709 10.632 194.837 10.912 195.845 11.472C196.853 12.016 197.645 12.8 198.221 13.824C198.813 14.848 199.109 16.04 199.109 17.4C199.109 18.76 198.805 19.96 198.197 21C197.605 22.024 196.797 22.816 195.773 23.376C194.749 23.936 193.613 24.216 192.365 24.216ZM192.365 22.296C193.149 22.296 193.885 22.112 194.573 21.744C195.261 21.376 195.813 20.824 196.229 20.088C196.661 19.352 196.877 18.456 196.877 17.4C196.877 16.344 196.669 15.448 196.253 14.712C195.837 13.976 195.293 13.432 194.621 13.08C193.949 12.712 193.221 12.528 192.437 12.528C191.637 12.528 190.901 12.712 190.229 13.08C189.573 13.432 189.045 13.976 188.645 14.712C188.245 15.448 188.045 16.344 188.045 17.4C188.045 18.472 188.237 19.376 188.621 20.112C189.021 20.848 189.549 21.4 190.205 21.768C190.861 22.12 191.581 22.296 192.365 22.296ZM204.165 12.984C204.549 12.232 205.093 11.648 205.797 11.232C206.517 10.816 207.389 10.608 208.413 10.608V12.864H207.837C205.389 12.864 204.165 14.192 204.165 16.848V24H201.981V10.848H204.165V12.984ZM218.278 24L213.118 18.192V24H210.934V6.24H213.118V16.68L218.182 10.848H221.23L215.038 17.4L221.254 24H218.278Z" fill="#F6F6F6"/>
</svg>
