<svg width="232" height="34" viewBox="0 0 232 34" fill="none" xmlns="http://www.w3.org/2000/svg">
<path d="M1.588 8.758C1.588 5.78333 2.33933 3.63667 3.842 2.318C5.34467 0.999331 7.78267 0.339998 11.156 0.339998C13.5173 0.339998 15.4187 0.953332 16.86 2.18C18.3013 3.40666 19.344 5.27733 19.988 7.792L15.71 11.012H13.456L18.424 7.286C17.78 5.23133 16.8447 3.79 15.618 2.962C14.422 2.134 12.9347 1.72 11.156 1.72C9.92933 1.72 8.88667 1.79667 8.028 1.95C7.2 2.10333 6.35667 2.41 5.498 2.87C4.67 3.29933 4.04133 4.00467 3.612 4.986C3.18267 5.96733 2.968 7.22467 2.968 8.758C2.968 10.1073 3.58133 11.3033 4.808 12.346C6.06533 13.3887 7.58333 14.278 9.362 15.014C11.1407 15.75 12.9193 16.5013 14.698 17.268C16.5073 18.0347 18.0253 19.016 19.252 20.212C20.5093 21.408 21.138 22.788 21.138 24.352C21.138 27.4187 20.3713 29.7033 18.838 31.206C17.3353 32.7087 14.744 33.46 11.064 33.46C8.05867 33.46 5.69733 32.862 3.98 31.666C2.26267 30.4393 1.082 28.5533 0.438 26.008L1.726 25.456C2.33933 27.94 3.382 29.6727 4.854 30.654C6.35667 31.6047 8.42667 32.08 11.064 32.08C14.008 32.08 16.1853 31.5127 17.596 30.378C19.0373 29.2433 19.758 27.2347 19.758 24.352C19.758 23.0027 19.1293 21.8067 17.872 20.764C16.6453 19.7213 15.1273 18.832 13.318 18.096C11.5393 17.36 9.76067 16.6087 7.982 15.842C6.20333 15.0753 4.68533 14.094 3.428 12.898C2.20133 11.702 1.588 10.322 1.588 8.758ZM41.5872 7.746C40.5445 7.40867 39.2565 7.24 37.7232 7.24C36.1898 7.24 34.9018 7.40867 33.8592 7.746C32.8165 8.05267 31.8505 8.65066 30.9612 9.54C30.1025 10.3987 29.4585 11.6713 29.0292 13.358C28.5998 15.014 28.3852 17.1147 28.3852 19.66C28.3852 22.2053 28.5998 24.3213 29.0292 26.008C29.4585 27.664 30.1025 28.9367 30.9612 29.826C31.8505 30.6847 32.8165 31.2827 33.8592 31.62C34.9018 31.9267 36.1898 32.08 37.7232 32.08C39.2565 32.08 40.5445 31.9267 41.5872 31.62C42.6298 31.2827 43.5805 30.6847 44.4392 29.826C45.3285 28.9367 45.9878 27.664 46.4172 26.008C46.8465 24.3213 47.0612 22.2053 47.0612 19.66C47.0612 17.1147 46.8465 15.014 46.4172 13.358C45.9878 11.6713 45.3285 10.3987 44.4392 9.54C43.5805 8.65066 42.6298 8.05267 41.5872 7.746ZM45.9572 30.194C44.3012 32.3713 41.5565 33.46 37.7232 33.46C33.8898 33.46 31.1452 32.3713 29.4892 30.194C27.8332 28.0167 27.0052 24.5053 27.0052 19.66C27.0052 14.8147 27.8332 11.3033 29.4892 9.126C31.1452 6.94866 33.8898 5.86 37.7232 5.86C41.5565 5.86 44.3012 6.94866 45.9572 9.126C47.6132 11.3033 48.4412 14.8147 48.4412 19.66C48.4412 24.5053 47.6132 28.0167 45.9572 30.194ZM57.3856 30.194C55.7296 28.0167 54.9016 24.5053 54.9016 19.66C54.9016 14.8147 55.7296 11.3033 57.3856 9.126C59.0416 6.94866 61.7863 5.86 65.6196 5.86C69.453 5.86 72.213 6.918 73.8996 9.034L72.8876 9.954C71.5383 8.14467 69.1156 7.24 65.6196 7.24C64.0863 7.24 62.7983 7.40867 61.7556 7.746C60.713 8.05267 59.747 8.65066 58.8576 9.54C57.999 10.3987 57.355 11.6713 56.9256 13.358C56.4963 15.014 56.2816 17.1147 56.2816 19.66C56.2816 22.2053 56.4963 24.3213 56.9256 26.008C57.355 27.664 57.999 28.9367 58.8576 29.826C59.747 30.6847 60.713 31.2827 61.7556 31.62C62.7983 31.9267 64.0863 32.08 65.6196 32.08C69.1156 32.08 71.5383 31.1753 72.8876 29.366L73.8996 30.286C72.213 32.402 69.453 33.46 65.6196 33.46C61.7863 33.46 59.0416 32.3713 57.3856 30.194ZM80.7587 6.32H82.1387V33H80.7587V6.32ZM93.3041 31.62H108.3L98.8701 9.402L88.8421 33H87.3701L98.8701 5.86L110.37 33H93.3041V31.62ZM130.982 31.62V33H115.618V6.32H116.998V31.62H130.982ZM155.188 7.286C154.483 5.50733 153.486 4.14267 152.198 3.192C150.91 2.21067 148.901 1.72 146.172 1.72C144.669 1.72 143.381 1.91933 142.308 2.318C141.235 2.686 140.269 3.33 139.41 4.25C138.551 5.17 137.907 6.504 137.478 8.252C137.049 9.96933 136.834 12.1007 136.834 14.646V19.154C136.834 21.6993 137.049 23.846 137.478 25.594C137.907 27.3113 138.551 28.63 139.41 29.55C140.269 30.47 141.235 31.1293 142.308 31.528C143.381 31.896 144.669 32.08 146.172 32.08C148.932 32.08 151.125 31.4973 152.75 30.332C154.375 29.136 155.188 27.8633 155.188 26.514V18.74H149.53V17.36H156.844V26.054C156.844 28.1087 155.909 29.8567 154.038 31.298C152.198 32.7393 149.576 33.46 146.172 33.46C142.4 33.46 139.671 32.31 137.984 30.01C136.297 27.6793 135.454 24.0607 135.454 19.154V14.646C135.454 9.73933 136.297 6.136 137.984 3.836C139.671 1.50533 142.4 0.339998 146.172 0.339998C149.208 0.339998 151.477 0.907332 152.98 2.042C154.483 3.146 155.648 4.72533 156.476 6.78L155.188 7.286ZM178.015 7.746C176.972 7.40867 175.684 7.24 174.151 7.24C172.618 7.24 171.33 7.40867 170.287 7.746C169.244 8.05267 168.278 8.65066 167.389 9.54C166.53 10.3987 165.886 11.6713 165.457 13.358C165.028 15.014 164.813 17.1147 164.813 19.66C164.813 22.2053 165.028 24.3213 165.457 26.008C165.886 27.664 166.53 28.9367 167.389 29.826C168.278 30.6847 169.244 31.2827 170.287 31.62C171.33 31.9267 172.618 32.08 174.151 32.08C175.684 32.08 176.972 31.9267 178.015 31.62C179.058 31.2827 180.008 30.6847 180.867 29.826C181.756 28.9367 182.416 27.664 182.845 26.008C183.274 24.3213 183.489 22.2053 183.489 19.66C183.489 17.1147 183.274 15.014 182.845 13.358C182.416 11.6713 181.756 10.3987 180.867 9.54C180.008 8.65066 179.058 8.05267 178.015 7.746ZM182.385 30.194C180.729 32.3713 177.984 33.46 174.151 33.46C170.318 33.46 167.573 32.3713 165.917 30.194C164.261 28.0167 163.433 24.5053 163.433 19.66C163.433 14.8147 164.261 11.3033 165.917 9.126C167.573 6.94866 170.318 5.86 174.151 5.86C177.984 5.86 180.729 6.94866 182.385 9.126C184.041 11.3033 184.869 14.8147 184.869 19.66C184.869 24.5053 184.041 28.0167 182.385 30.194ZM207.843 31.62V33H192.479V6.32H193.859V31.62H207.843ZM216.639 33H213.143V6.32H216.639C221.178 6.32 224.797 7.516 227.495 9.908C230.194 12.3 231.543 15.5507 231.543 19.66C231.543 23.7693 230.194 27.02 227.495 29.412C224.797 31.804 221.178 33 216.639 33ZM216.639 31.62C220.779 31.62 224.061 30.562 226.483 28.446C228.937 26.33 230.163 23.4013 230.163 19.66C230.163 15.9187 228.937 12.99 226.483 10.874C224.061 8.758 220.779 7.7 216.639 7.7H214.523V31.62H216.639Z" fill="#CFCFCF"/>
</svg>
