<svg width="32" height="32" viewBox="0 0 32 32" fill="none" xmlns="http://www.w3.org/2000/svg">
<path d="M21.41 23L16 17.591L10.59 23L9 21.41L14.409 16L9 10.591L10.591 9L16 14.409L21.409 9L23 10.591L17.591 16L23 21.41L21.41 23Z" fill="#CFCFCF"/>
<path d="M16 4C18.3734 4 20.6935 4.70379 22.6668 6.02236C24.6402 7.34094 26.1783 9.21509 27.0866 11.4078C27.9948 13.6005 28.2324 16.0133 27.7694 18.3411C27.3064 20.6689 26.1635 22.8071 24.4853 24.4853C22.807 26.1635 20.6689 27.3064 18.3411 27.7694C16.0133 28.2324 13.6005 27.9948 11.4078 27.0866C9.21508 26.1783 7.34094 24.6402 6.02236 22.6668C4.70379 20.6935 4 18.3734 4 16C4.0037 12.8185 5.26918 9.76844 7.51881 7.51881C9.76844 5.26918 12.8185 4.00371 16 4V4ZM16 2C13.2311 2 10.5243 2.82109 8.22201 4.35943C5.91973 5.89777 4.12531 8.08427 3.06569 10.6424C2.00606 13.2006 1.72881 16.0155 2.269 18.7313C2.8092 21.447 4.14257 23.9416 6.1005 25.8995C8.05844 27.8574 10.553 29.1908 13.2687 29.731C15.9845 30.2712 18.7994 29.9939 21.3576 28.9343C23.9157 27.8747 26.1022 26.0803 27.6406 23.778C29.1789 21.4757 30 18.7689 30 16C30 12.287 28.525 8.72601 25.8995 6.1005C23.274 3.475 19.713 2 16 2V2Z" fill="#CFCFCF"/>
</svg>
