<svg width="32" height="32" viewBox="0 0 32 32" fill="none" xmlns="http://www.w3.org/2000/svg">
<path d="M28.1 18.9L13.1 3.9C10.6 1.3 6.49995 1.3 3.89995 3.8C1.29995 6.3 1.29995 10.5 3.89995 13L3.99995 13.1L6.79995 16L8.19995 14.6L5.29995 11.7C3.59995 10 3.59995 7.1 5.29995 5.4C6.99995 3.7 9.89995 3.6 11.6 5.3L11.7 5.4L26.6 20.3C28.4 22 28.4 24.9 26.7 26.6C25 28.4 22.1 28.4 20.4 26.7L20.2999 26.6L12.9 19.2C11.9 18.2 12 16.6 12.9 15.7C13.9 14.8 15.4 14.8 16.4 15.7L20.5 19.8L21.9 18.4L17.7 14.2C15.9 12.5 13.1 12.6 11.4 14.4C9.79995 16.1 9.79995 18.8 11.4 20.6L18.9 28.1C21.4 30.7 25.5 30.7 28.1 28.2C30.7 25.7 30.7 21.5 28.1 18.9C28.1 18.9 28.1 19 28.1 18.9Z" fill="#121212"/>
</svg>
