<svg width="32" height="32" viewBox="0 0 32 32" fill="none" xmlns="http://www.w3.org/2000/svg">
<path d="M4 22H2V4C2.00053 3.46973 2.21141 2.96133 2.58637 2.58637C2.96133 2.21141 3.46973 2.00053 4 2H22V4H4V22Z" fill="#121212"/>
<path d="M21 17C21.5933 17 22.1734 16.8241 22.6667 16.4944C23.1601 16.1648 23.5446 15.6962 23.7716 15.1481C23.9987 14.5999 24.0581 13.9967 23.9424 13.4147C23.8266 12.8328 23.5409 12.2982 23.1213 11.8787C22.7018 11.4591 22.1672 11.1734 21.5853 11.0576C21.0033 10.9419 20.4001 11.0013 19.8519 11.2284C19.3038 11.4554 18.8352 11.8399 18.5056 12.3333C18.1759 12.8266 18 13.4067 18 14C18.0008 14.7954 18.3171 15.558 18.8796 16.1204C19.442 16.6829 20.2046 16.9992 21 17ZM21 13C21.1978 13 21.3911 13.0587 21.5556 13.1685C21.72 13.2784 21.8482 13.4346 21.9239 13.6173C21.9996 13.8 22.0194 14.0011 21.9808 14.1951C21.9422 14.3891 21.847 14.5673 21.7071 14.7071C21.5673 14.847 21.3891 14.9422 21.1951 14.9808C21.0011 15.0194 20.8 14.9996 20.6173 14.9239C20.4346 14.8482 20.2784 14.72 20.1685 14.5556C20.0586 14.3911 20 14.1978 20 14C20 13.7348 20.1054 13.4804 20.2929 13.2929C20.4804 13.1054 20.7348 13 21 13Z" fill="#121212"/>
<path d="M28 7H9C8.46973 7.00053 7.96133 7.21141 7.58637 7.58637C7.21141 7.96133 7.00053 8.46973 7 9V28C7.00053 28.5303 7.21141 29.0387 7.58637 29.4136C7.96133 29.7886 8.46973 29.9995 9 30H28C28.5303 29.9995 29.0387 29.7886 29.4136 29.4136C29.7886 29.0387 29.9995 28.5303 30 28V9C29.9995 8.46973 29.7886 7.96133 29.4136 7.58637C29.0387 7.21141 28.5303 7.00053 28 7ZM28 28H9V22L13 18.003L18.586 23.589C18.9611 23.9639 19.4697 24.1746 20 24.1746C20.5303 24.1746 21.0389 23.9639 21.414 23.589L23 22.003L28 27V28ZM28 24.172L24.414 20.586C24.0389 20.2111 23.5303 20.0004 23 20.0004C22.4697 20.0004 21.9611 20.2111 21.586 20.586L20 22.172L14.414 16.586C14.0389 16.2111 13.5303 16.0004 13 16.0004C12.4697 16.0004 11.9611 16.2111 11.586 16.586L9 19.172V9H28V24.172Z" fill="#121212"/>
</svg>
