<svg width="32" height="32" viewBox="0 0 32 32" fill="none" xmlns="http://www.w3.org/2000/svg">
<path d="M9.18005 18.57C9.06426 18.0546 9.00392 17.5283 9.00005 17V14H7.00005V17C6.99629 18.0866 7.19291 19.1647 7.58005 20.18L9.18005 18.57Z" fill="#121212"/>
<path d="M13.0001 15V7.00001C13.0001 6.20436 13.3162 5.4413 13.8788 4.87869C14.4414 4.31608 15.2044 4.00001 16.0001 4.00001C16.7957 4.00001 17.5588 4.31608 18.1214 4.87869C18.684 5.4413 19.0001 6.20436 19.0001 7.00001V8.75001L21.0001 6.75001C20.9669 5.42393 20.4084 4.16533 19.4472 3.25109C18.4861 2.33685 17.2012 1.84186 15.8751 1.87501C14.549 1.90816 13.2904 2.46674 12.3762 3.42786C11.4619 4.38899 10.9669 5.67393 11.0001 7.00001V15H13.0001Z" fill="#121212"/>
<path d="M23 17C22.9961 18.3569 22.5979 19.6833 21.854 20.818C21.11 21.9527 20.0523 22.8468 18.8095 23.3913C17.5667 23.9359 16.1924 24.1076 14.8539 23.8854C13.5154 23.6633 12.2702 23.0569 11.27 22.14L12.69 20.73C13.4103 21.3662 14.2987 21.7814 15.2489 21.9258C16.1991 22.0701 17.1707 21.9376 18.0475 21.5441C18.9243 21.1505 19.6691 20.5126 20.1927 19.7067C20.7164 18.9008 20.9966 17.9611 21 17V12.42L30 3.42L28.59 2L2 28.59L3.41 30L9.85 23.56C11.2615 24.8933 13.0699 25.729 15 25.94V28H11V30H21V28H17V25.94C19.1994 25.6941 21.231 24.6465 22.7068 22.9973C24.1825 21.3482 24.9989 19.2131 25 17V14H23V17ZM19 17C18.9978 17.5669 18.835 18.1217 18.5305 18.5999C18.2259 19.0781 17.7921 19.4602 17.2793 19.702C16.7665 19.9437 16.1956 20.0352 15.6329 19.9658C15.0703 19.8965 14.5387 19.6691 14.1 19.31L19 14.42V17Z" fill="#121212"/>
</svg>
