<svg width="32" height="32" viewBox="0 0 32 32" fill="none" xmlns="http://www.w3.org/2000/svg">
<path d="M13.5019 5.414C13.0435 7.37122 12.9811 9.40036 13.3185 11.382C13.6559 13.3637 14.3863 15.2579 15.4665 16.9531C16.5468 18.6484 17.9552 20.1105 19.6089 21.2533C21.2626 22.3962 23.1282 23.1968 25.0959 23.608C24.0614 24.6784 22.8224 25.53 21.4524 26.1124C20.0825 26.6947 18.6095 26.9959 17.1209 26.998C16.9829 26.998 16.8429 27.003 16.7029 26.998C14.1113 26.9067 11.6335 25.9104 9.70009 24.1822C7.76667 22.454 6.49975 20.1031 6.11944 17.5379C5.73913 14.9727 6.26946 12.3553 7.6183 10.1405C8.96713 7.92564 11.0492 6.2533 13.5029 5.414H13.5019ZM14.9799 3C14.9212 3.0002 14.8626 3.00555 14.8049 3.016C11.6215 3.58252 8.76025 5.30669 6.77199 7.85653C4.78373 10.4064 3.80906 13.6016 4.03563 16.8271C4.26219 20.0525 5.67398 23.0801 7.99918 25.327C10.3244 27.5738 13.3986 28.8811 16.6299 28.997C16.7939 29.003 16.9579 28.997 17.1199 28.997C19.2188 28.9984 21.2872 28.4943 23.1502 27.5274C25.0132 26.5605 26.6159 25.1592 27.8229 23.442C27.9207 23.294 27.9778 23.1229 27.9884 22.9458C27.999 22.7687 27.9628 22.592 27.8835 22.4333C27.8041 22.2747 27.6843 22.1397 27.5363 22.0421C27.3882 21.9444 27.217 21.8875 27.0399 21.877C25.0422 21.7017 23.1115 21.0693 21.3971 20.0288C19.6827 18.9884 18.2305 17.5676 17.1528 15.8764C16.0751 14.1852 15.4006 12.2688 15.1817 10.2754C14.9627 8.28193 15.205 6.26484 15.8899 4.38C15.9482 4.22913 15.9695 4.06652 15.9522 3.90572C15.9349 3.74492 15.8794 3.59059 15.7904 3.45557C15.7014 3.32055 15.5814 3.20877 15.4404 3.12952C15.2994 3.05028 15.1415 3.00587 14.9799 3Z" fill="#121212"/>
</svg>
